<svg width="53" height="53" viewBox="0 0 53 53" fill="none" xmlns="http://www.w3.org/2000/svg">
<path d="M50.0308 12.0052C48.9263 12.008 48.0332 12.9058 48.036 14.0103C48.0389 15.1149 48.9366 16.008 50.0412 16.0052C51.1457 16.0023 52.0389 15.1046 52.036 14C52.0332 12.8954 51.1354 12.0023 50.0308 12.0052Z" fill="#4D4D4D" fill-opacity="0.5"/>
<path d="M49.9998 0.00522052C48.8953 0.00807529 48.0021 0.905817 48.005 2.01038C48.0079 3.11495 48.9056 4.00806 50.0102 4.00521C51.1147 4.00235 52.0078 3.10461 52.005 2.00004C52.0021 0.895479 51.1044 0.00236575 49.9998 0.00522052Z" fill="#4D4D4D" fill-opacity="0.5"/>
<path d="M38.0929 36.0361C36.9883 36.039 36.0952 36.9367 36.0981 38.0413C36.1009 39.1458 36.9987 40.039 38.1032 40.0361C39.2078 40.0332 40.1009 39.1355 40.0981 38.0309C40.0952 36.9264 39.1975 36.0333 38.0929 36.0361Z" fill="#4D4D4D" fill-opacity="0.5"/>
<path d="M38.0619 24.0362C36.9573 24.039 36.0642 24.9368 36.0671 26.0413C36.0699 27.1459 36.9677 28.039 38.0722 28.0361C39.1768 28.0333 40.0699 27.1355 40.0671 26.031C40.0642 24.9264 39.1665 24.0333 38.0619 24.0362Z" fill="#4D4D4D" fill-opacity="0.5"/>
<path d="M38.0309 12.0362C36.9263 12.039 36.0332 12.9368 36.0361 14.0414C36.0389 15.1459 36.9367 16.039 38.0412 16.0362C39.1458 16.0333 40.0389 15.1356 40.036 14.031C40.0332 12.9265 39.1354 12.0333 38.0309 12.0362Z" fill="#4D4D4D" fill-opacity="0.5"/>
<path d="M37.9999 0.0362347C36.8953 0.0390894 36.0022 0.936831 36.005 2.0414C36.0079 3.14596 36.9056 4.03908 38.0102 4.03622C39.1148 4.03337 40.0079 3.13562 40.005 2.03106C40.0022 0.926493 39.1044 0.0333799 37.9999 0.0362347Z" fill="#4D4D4D" fill-opacity="0.5"/>
<path d="M26.093 36.0671C24.9884 36.07 24.0953 36.9677 24.0981 38.0723C24.101 39.1769 24.9987 40.07 26.1033 40.0671C27.2079 40.0643 28.101 39.1665 28.0981 38.062C28.0953 36.9574 27.1975 36.0643 26.093 36.0671Z" fill="#4D4D4D" fill-opacity="0.5"/>
<path d="M26.0619 24.0672C24.9574 24.07 24.0643 24.9678 24.0671 26.0723C24.07 27.1769 24.9677 28.07 26.0723 28.0672C27.1768 28.0643 28.07 27.1666 28.0671 26.062C28.0642 24.9574 27.1665 24.0643 26.0619 24.0672Z" fill="#4D4D4D" fill-opacity="0.5"/>
<path d="M26.0309 12.0672C24.9264 12.0701 24.0332 12.9678 24.0361 14.0724C24.039 15.1769 24.9367 16.0701 26.0413 16.0672C27.1458 16.0643 28.0389 15.1666 28.0361 14.062C28.0332 12.9575 27.1355 12.0644 26.0309 12.0672Z" fill="#4D4D4D" fill-opacity="0.5"/>
<path d="M25.9999 0.0672488C24.8953 0.0701036 24.0022 0.967845 24.0051 2.07241C24.0079 3.17698 24.9057 4.07009 26.0102 4.06724C27.1148 4.06438 28.0079 3.16664 28.0051 2.06207C28.0022 0.957507 27.1045 0.064394 25.9999 0.0672488Z" fill="#4D4D4D" fill-opacity="0.5"/>
<path d="M14.124 48.0981C13.0194 48.101 12.1263 48.9987 12.1292 50.1033C12.132 51.2078 13.0298 52.1009 14.1343 52.0981C15.2389 52.0952 16.132 51.1975 16.1292 50.0929C16.1263 48.9884 15.2286 48.0952 14.124 48.0981Z" fill="#4D4D4D" fill-opacity="0.5"/>
<path d="M14.093 36.0981C12.9884 36.101 12.0953 36.9987 12.0982 38.1033C12.101 39.2079 12.9988 40.101 14.1033 40.0981C15.2079 40.0953 16.101 39.1975 16.0982 38.093C16.0953 36.9884 15.1976 36.0953 14.093 36.0981Z" fill="#4D4D4D" fill-opacity="0.5"/>
<path d="M14.062 24.0982C12.9574 24.101 12.0643 24.9988 12.0672 26.1033C12.07 27.2079 12.9677 28.101 14.0723 28.0982C15.1769 28.0953 16.07 27.1976 16.0671 26.093C16.0643 24.9884 15.1665 24.0953 14.062 24.0982Z" fill="#4D4D4D" fill-opacity="0.5"/>
<path d="M14.031 12.0982C12.9264 12.1011 12.0333 12.9988 12.0361 14.1034C12.039 15.208 12.9367 16.1011 14.0413 16.0982C15.1459 16.0954 16.039 15.1976 16.0361 14.093C16.0333 12.9885 15.1355 12.0954 14.031 12.0982Z" fill="#4D4D4D" fill-opacity="0.5"/>
<path d="M13.9999 0.0982629C12.8954 0.101118 12.0023 0.998859 12.0051 2.10343C12.008 3.20799 12.9057 4.1011 14.0103 4.09825C15.1149 4.09539 16.008 3.19765 16.0051 2.09309C16.0023 0.988521 15.1045 0.0954082 13.9999 0.0982629Z" fill="#4D4D4D" fill-opacity="0.5"/>
<path d="M2.12405 48.1291C1.01948 48.132 0.126366 49.0297 0.129221 50.1343C0.132076 51.2388 1.02982 52.132 2.13438 52.1291C3.23895 52.1262 4.13206 51.2285 4.12921 50.1239C4.12635 49.0194 3.22861 48.1263 2.12405 48.1291Z" fill="#4D4D4D" fill-opacity="0.5"/>
<path d="M2.09303 36.1292C0.988465 36.132 0.0953519 37.0298 0.0982067 38.1343C0.101061 39.2389 0.998803 40.132 2.10337 40.1291C3.20793 40.1263 4.10105 39.2285 4.09819 38.124C4.09534 37.0194 3.1976 36.1263 2.09303 36.1292Z" fill="#4D4D4D" fill-opacity="0.5"/>
<path d="M2.06202 24.1292C0.957451 24.1321 0.0643378 25.0298 0.0671926 26.1344C0.0700474 27.2389 0.967789 28.132 2.07235 28.1292C3.17692 28.1263 4.07003 27.2286 4.06718 26.124C4.06432 25.0195 3.16658 24.1263 2.06202 24.1292Z" fill="#4D4D4D" fill-opacity="0.5"/>
<path d="M2.031 12.1292C0.926437 12.1321 0.0333237 13.0298 0.0361785 14.1344C0.0390332 15.239 0.936775 16.1321 2.04134 16.1292C3.14591 16.1264 4.03902 15.2286 4.03617 14.1241C4.03331 13.0195 3.13557 12.1264 2.031 12.1292Z" fill="#4D4D4D" fill-opacity="0.5"/>
<path d="M1.99999 0.129277C0.895423 0.132132 0.00230955 1.02987 0.00516432 2.13444C0.00801909 3.23901 0.905761 4.13212 2.01033 4.12926C3.11489 4.12641 4.00801 3.22867 4.00515 2.1241C4.0023 1.01954 3.10455 0.126422 1.99999 0.129277Z" fill="#4D4D4D" fill-opacity="0.5"/>
</svg>
