<svg width="54" height="53" viewBox="0 0 54 53" fill="none" xmlns="http://www.w3.org/2000/svg">
<path d="M12.8636 50.9197C12.8699 49.8152 13.7704 48.9249 14.875 48.9311C15.9795 48.9374 16.8698 49.8379 16.8635 50.9425C16.8572 52.047 15.9567 52.9374 14.8522 52.9311C13.7476 52.9248 12.8573 52.0243 12.8636 50.9197Z" fill="#E6A80B"/>
<path d="M0.863794 50.8514C0.870084 49.7468 1.7706 48.8565 2.87515 48.8628C3.9797 48.8691 4.87002 49.7696 4.86373 50.8742C4.85744 51.9787 3.95692 52.869 2.85237 52.8627C1.74782 52.8565 0.857504 51.9559 0.863794 50.8514Z" fill="#E6A80B"/>
<path d="M36.9315 39.0566C36.9378 37.952 37.8383 37.0617 38.9429 37.068C40.0475 37.0743 40.9378 37.9748 40.9315 39.0794C40.9252 40.1839 40.0247 41.0742 38.9201 41.0679C37.8156 41.0616 36.9253 40.1611 36.9315 39.0566Z" fill="#E6A80B"/>
<path d="M24.9317 38.9882C24.938 37.8837 25.8385 36.9934 26.9431 36.9997C28.0476 37.006 28.938 37.9065 28.9317 39.011C28.9254 40.1156 28.0249 41.0059 26.9203 40.9996C25.8158 40.9933 24.9254 40.0928 24.9317 38.9882Z" fill="#E6A80B"/>
<path d="M12.9319 38.9199C12.9382 37.8154 13.8387 36.925 14.9433 36.9313C16.0478 36.9376 16.9382 37.8381 16.9319 38.9427C16.9256 40.0472 16.0251 40.9376 14.9205 40.9313C13.816 40.925 12.9256 40.0245 12.9319 38.9199Z" fill="#E6A80B"/>
<path d="M0.932127 38.8516C0.938416 37.747 1.83893 36.8567 2.94348 36.863C4.04803 36.8693 4.93835 37.7698 4.93206 38.8744C4.92577 39.9789 4.02526 40.8692 2.92071 40.8629C1.81615 40.8566 0.925837 39.9561 0.932127 38.8516Z" fill="#E6A80B"/>
<path d="M36.9999 27.0568C37.0062 25.9522 37.9067 25.0619 39.0112 25.0682C40.1158 25.0745 41.0061 25.975 40.9998 27.0796C40.9935 28.1841 40.093 29.0744 38.9885 29.0681C37.8839 29.0618 36.9936 28.1613 36.9999 27.0568Z" fill="#E6A80B"/>
<path d="M25.0001 26.9884C25.0064 25.8839 25.9069 24.9936 27.0114 24.9999C28.116 25.0062 29.0063 25.9067 29 27.0112C28.9937 28.1158 28.0932 29.0061 26.9886 28.9998C25.8841 28.9935 24.9938 28.093 25.0001 26.9884Z" fill="#E6A80B"/>
<path d="M13.0003 26.9201C13.0066 25.8156 13.9071 24.9252 15.0116 24.9315C16.1162 24.9378 17.0065 25.8383 17.0002 26.9429C16.9939 28.0474 16.0934 28.9378 14.9888 28.9315C13.8843 28.9252 12.994 28.0247 13.0003 26.9201Z" fill="#E6A80B"/>
<path d="M1.00046 26.8518C1.00675 25.7472 1.90726 24.8569 3.01182 24.8632C4.11637 24.8695 5.00668 25.77 5.00039 26.8746C4.9941 27.9791 4.09359 28.8694 2.98904 28.8631C1.88449 28.8568 0.994169 27.9563 1.00046 26.8518Z" fill="#E6A80B"/>
<path d="M49.068 15.1253C49.0743 14.0207 49.9748 13.1304 51.0794 13.1367C52.1839 13.143 53.0742 14.0435 53.0679 15.1481C53.0617 16.2526 52.1611 17.1429 51.0566 17.1367C49.952 17.1304 49.0617 16.2299 49.068 15.1253Z" fill="#E6A80B"/>
<path d="M37.0682 15.057C37.0745 13.9524 37.975 13.0621 39.0796 13.0684C40.1841 13.0747 41.0744 13.9752 41.0681 15.0797C41.0619 16.1843 40.1613 17.0746 39.0568 17.0683C37.9522 17.062 37.0619 16.1615 37.0682 15.057Z" fill="#E6A80B"/>
<path d="M25.0684 14.9886C25.0747 13.8841 25.9752 12.9938 27.0798 13.0001C28.1843 13.0063 29.0746 13.9069 29.0683 15.0114C29.062 16.116 28.1615 17.0063 27.057 17C25.9524 16.9937 25.0621 16.0932 25.0684 14.9886Z" fill="#E6A80B"/>
<path d="M13.0686 14.9203C13.0749 13.8158 13.9754 12.9254 15.08 12.9317C16.1845 12.938 17.0748 13.8385 17.0685 14.9431C17.0622 16.0476 16.1617 16.9379 15.0572 16.9317C13.9526 16.9254 13.0623 16.0249 13.0686 14.9203Z" fill="#E6A80B"/>
<path d="M1.06879 14.852C1.07508 13.7474 1.9756 12.8571 3.08015 12.8634C4.1847 12.8697 5.07502 13.7702 5.06873 14.8747C5.06244 15.9793 4.16192 16.8696 3.05737 16.8633C1.95282 16.857 1.0625 15.9565 1.06879 14.852Z" fill="#E6A80B"/>
<path d="M49.1363 3.12549C49.1426 2.02094 50.0432 1.13063 51.1477 1.13692C52.2523 1.14321 53.1426 2.04372 53.1363 3.14827C53.13 4.25282 52.2295 5.14314 51.1249 5.13685C50.0204 5.13056 49.1301 4.23004 49.1363 3.12549Z" fill="#E6A80B"/>
<path d="M37.1365 3.05716C37.1428 1.95261 38.0433 1.06229 39.1479 1.06858C40.2524 1.07487 41.1428 1.97539 41.1365 3.07994C41.1302 4.18449 40.2297 5.07481 39.1251 5.06852C38.0206 5.06223 37.1303 4.16171 37.1365 3.05716Z" fill="#E6A80B"/>
<path d="M25.1367 2.98883C25.143 1.88428 26.0435 0.993961 27.1481 1.00025C28.2526 1.00654 29.143 1.90706 29.1367 3.01161C29.1304 4.11616 28.2299 5.00648 27.1253 5.00019C26.0208 4.9939 25.1304 4.09338 25.1367 2.98883Z" fill="#E6A80B"/>
<path d="M13.1369 2.9205C13.1432 1.81595 14.0437 0.925629 15.1483 0.931918C16.2528 0.938208 17.1432 1.83872 17.1369 2.94327C17.1306 4.04783 16.2301 4.93814 15.1255 4.93185C14.021 4.92556 13.1306 4.02505 13.1369 2.9205Z" fill="#E6A80B"/>
<path d="M1.13712 2.85216C1.14341 1.74761 2.04393 0.857296 3.14848 0.863586C4.25303 0.869876 5.14335 1.77039 5.13706 2.87494C5.13077 3.97949 4.23025 4.86981 3.1257 4.86352C2.02115 4.85723 1.13083 3.95672 1.13712 2.85216Z" fill="#E6A80B"/>
</svg>
