<svg width="53" height="53" viewBox="0 0 53 53" fill="none" xmlns="http://www.w3.org/2000/svg">
<path d="M2.10337 12.0052C3.20794 12.008 4.10105 12.9058 4.0982 14.0103C4.09534 15.1149 3.1976 16.008 2.09304 16.0052C0.98847 16.0023 0.0953567 15.1046 0.0982114 14C0.101066 12.8954 0.998808 12.0023 2.10337 12.0052Z" fill="#808080" fill-opacity="0.3"/>
<path d="M2.13439 0.00522052C3.23895 0.00807529 4.13207 0.905817 4.12921 2.01038C4.12636 3.11495 3.22862 4.00806 2.12405 4.00521C1.01948 4.00235 0.126371 3.10461 0.129226 2.00004C0.13208 0.895479 1.02982 0.00236575 2.13439 0.00522052Z" fill="#808080" fill-opacity="0.3"/>
<path d="M14.0413 36.0361C15.1459 36.039 16.039 36.9367 16.0361 38.0413C16.0333 39.1458 15.1355 40.039 14.031 40.0361C12.9264 40.0332 12.0333 39.1355 12.0361 38.0309C12.039 36.9264 12.9367 36.0333 14.0413 36.0361Z" fill="#808080" fill-opacity="0.3"/>
<path d="M14.0723 24.0362C15.1769 24.039 16.07 24.9368 16.0671 26.0413C16.0643 27.1459 15.1665 28.039 14.062 28.0361C12.9574 28.0333 12.0643 27.1355 12.0672 26.031C12.07 24.9264 12.9678 24.0333 14.0723 24.0362Z" fill="#808080" fill-opacity="0.3"/>
<path d="M14.1033 12.0362C15.2079 12.039 16.101 12.9368 16.0982 14.0414C16.0953 15.1459 15.1976 16.039 14.093 16.0362C12.9884 16.0333 12.0953 15.1356 12.0982 14.031C12.101 12.9265 12.9988 12.0333 14.1033 12.0362Z" fill="#808080" fill-opacity="0.3"/>
<path d="M14.1343 0.0362347C15.2389 0.0390894 16.132 0.936831 16.1292 2.0414C16.1263 3.14596 15.2286 4.03908 14.124 4.03622C13.0194 4.03337 12.1263 3.13562 12.1292 2.03106C12.132 0.926493 13.0298 0.0333799 14.1343 0.0362347Z" fill="#808080" fill-opacity="0.3"/>
<path d="M26.0413 36.0671C27.1458 36.07 28.0389 36.9677 28.0361 38.0723C28.0332 39.1769 27.1355 40.07 26.0309 40.0671C24.9264 40.0643 24.0332 39.1665 24.0361 38.062C24.039 36.9574 24.9367 36.0643 26.0413 36.0671Z" fill="#808080" fill-opacity="0.3"/>
<path d="M26.0723 24.0672C27.1768 24.07 28.07 24.9678 28.0671 26.0723C28.0642 27.1769 27.1665 28.07 26.0619 28.0672C24.9574 28.0643 24.0643 27.1666 24.0671 26.062C24.07 24.9574 24.9677 24.0643 26.0723 24.0672Z" fill="#808080" fill-opacity="0.3"/>
<path d="M26.1033 12.0672C27.2079 12.0701 28.101 12.9678 28.0981 14.0724C28.0953 15.1769 27.1975 16.0701 26.093 16.0672C24.9884 16.0643 24.0953 15.1666 24.0981 14.062C24.101 12.9575 24.9987 12.0644 26.1033 12.0672Z" fill="#808080" fill-opacity="0.3"/>
<path d="M26.1343 0.0672488C27.2389 0.0701036 28.132 0.967845 28.1291 2.07241C28.1263 3.17698 27.2285 4.07009 26.124 4.06724C25.0194 4.06438 24.1263 3.16664 24.1291 2.06207C24.132 0.957507 25.0297 0.064394 26.1343 0.0672488Z" fill="#808080" fill-opacity="0.3"/>
<path d="M38.0102 48.0981C39.1148 48.101 40.0079 48.9987 40.005 50.1033C40.0022 51.2078 39.1044 52.1009 37.9999 52.0981C36.8953 52.0952 36.0022 51.1975 36.005 50.0929C36.0079 48.9884 36.9056 48.0952 38.0102 48.0981Z" fill="#808080" fill-opacity="0.3"/>
<path d="M38.0412 36.0981C39.1458 36.101 40.0389 36.9987 40.036 38.1033C40.0332 39.2079 39.1355 40.101 38.0309 40.0981C36.9263 40.0953 36.0332 39.1975 36.0361 38.093C36.0389 36.9884 36.9367 36.0953 38.0412 36.0981Z" fill="#808080" fill-opacity="0.3"/>
<path d="M38.0722 24.0982C39.1768 24.101 40.0699 24.9988 40.0671 26.1033C40.0642 27.2079 39.1665 28.101 38.0619 28.0982C36.9573 28.0953 36.0642 27.1976 36.0671 26.093C36.0699 24.9884 36.9677 24.0953 38.0722 24.0982Z" fill="#808080" fill-opacity="0.3"/>
<path d="M38.1033 12.0982C39.2078 12.1011 40.1009 12.9988 40.0981 14.1034C40.0952 15.208 39.1975 16.1011 38.0929 16.0982C36.9883 16.0954 36.0952 15.1976 36.0981 14.093C36.1009 12.9885 36.9987 12.0954 38.1033 12.0982Z" fill="#808080" fill-opacity="0.3"/>
<path d="M38.1343 0.0982629C39.2388 0.101118 40.1319 0.998859 40.1291 2.10343C40.1262 3.20799 39.2285 4.1011 38.1239 4.09825C37.0194 4.09539 36.1263 3.19765 36.1291 2.09309C36.132 0.988521 37.0297 0.0954082 38.1343 0.0982629Z" fill="#808080" fill-opacity="0.3"/>
<path d="M50.0102 48.1291C51.1147 48.132 52.0079 49.0297 52.005 50.1343C52.0021 51.2388 51.1044 52.132 49.9998 52.1291C48.8953 52.1262 48.0022 51.2285 48.005 50.1239C48.0079 49.0194 48.9056 48.1263 50.0102 48.1291Z" fill="#808080" fill-opacity="0.3"/>
<path d="M50.0412 36.1292C51.1458 36.132 52.0389 37.0298 52.036 38.1343C52.0332 39.2389 51.1354 40.132 50.0308 40.1291C48.9263 40.1263 48.0332 39.2285 48.036 38.124C48.0389 37.0194 48.9366 36.1263 50.0412 36.1292Z" fill="#808080" fill-opacity="0.3"/>
<path d="M50.0722 24.1292C51.1768 24.1321 52.0699 25.0298 52.067 26.1344C52.0642 27.2389 51.1664 28.132 50.0619 28.1292C48.9573 28.1263 48.0642 27.2286 48.067 26.124C48.0699 25.0195 48.9676 24.1263 50.0722 24.1292Z" fill="#808080" fill-opacity="0.3"/>
<path d="M50.1032 12.1292C51.2078 12.1321 52.1009 13.0298 52.098 14.1344C52.0952 15.239 51.1974 16.1321 50.0929 16.1292C48.9883 16.1264 48.0952 15.2286 48.0981 14.1241C48.1009 13.0195 48.9986 12.1264 50.1032 12.1292Z" fill="#808080" fill-opacity="0.3"/>
<path d="M50.1342 0.129277C51.2388 0.132132 52.1319 1.02987 52.1291 2.13444C52.1262 3.23901 51.2285 4.13212 50.1239 4.12926C49.0193 4.12641 48.1262 3.22867 48.1291 2.1241C48.1319 1.01954 49.0297 0.126422 50.1342 0.129277Z" fill="#808080" fill-opacity="0.3"/>
</svg>
