<svg width="53" height="53" viewBox="0 0 53 53" fill="none" xmlns="http://www.w3.org/2000/svg">
<path d="M40.2841 2.22774C40.2778 3.33229 39.3773 4.22261 38.2727 4.21632C37.1682 4.21003 36.2779 3.30952 36.2842 2.20496C36.2905 1.10041 37.191 0.210096 38.2955 0.216386C39.4001 0.222675 40.2904 1.12319 40.2841 2.22774Z" fill="#E6A80B"/>
<path d="M52.2839 2.29607C52.2776 3.40063 51.3771 4.29094 50.2726 4.28465C49.168 4.27836 48.2777 3.37785 48.284 2.2733C48.2903 1.16875 49.1908 0.278428 50.2953 0.284718C51.3999 0.291008 52.2902 1.19152 52.2839 2.29607Z" fill="#E6A80B"/>
<path d="M16.2162 14.0909C16.2099 15.1954 15.3094 16.0858 14.2048 16.0795C13.1003 16.0732 12.2099 15.1727 12.2162 14.0681C12.2225 12.9636 13.123 12.0732 14.2276 12.0795C15.3321 12.0858 16.2225 12.9863 16.2162 14.0909Z" fill="#E6A80B"/>
<path d="M28.216 14.1592C28.2097 15.2638 27.3092 16.1541 26.2046 16.1478C25.1001 16.1415 24.2097 15.241 24.216 14.1364C24.2223 13.0319 25.1228 12.1416 26.2274 12.1479C27.3319 12.1541 28.2223 13.0547 28.216 14.1592Z" fill="#E6A80B"/>
<path d="M40.2158 14.2275C40.2095 15.3321 39.309 16.2224 38.2044 16.2161C37.0999 16.2098 36.2095 15.3093 36.2158 14.2048C36.2221 13.1002 37.1226 12.2099 38.2272 12.2162C39.3317 12.2225 40.2221 13.123 40.2158 14.2275Z" fill="#E6A80B"/>
<path d="M52.2156 14.2959C52.2093 15.4004 51.3088 16.2907 50.2042 16.2845C49.0997 16.2782 48.2094 15.3777 48.2156 14.2731C48.2219 13.1686 49.1224 12.2782 50.227 12.2845C51.3316 12.2908 52.2219 13.1913 52.2156 14.2959Z" fill="#E6A80B"/>
<path d="M16.1478 26.0907C16.1415 27.1952 15.241 28.0856 14.1365 28.0793C13.0319 28.073 12.1416 27.1725 12.1479 26.0679C12.1542 24.9634 13.0547 24.073 14.1593 24.0793C15.2638 24.0856 16.1541 24.9861 16.1478 26.0907Z" fill="#E6A80B"/>
<path d="M28.1476 26.159C28.1413 27.2636 27.2408 28.1539 26.1363 28.1476C25.0317 28.1413 24.1414 27.2408 24.1477 26.1362C24.154 25.0317 25.0545 24.1414 26.1591 24.1477C27.2636 24.154 28.1539 25.0545 28.1476 26.159Z" fill="#E6A80B"/>
<path d="M40.1474 26.2274C40.1412 27.3319 39.2406 28.2222 38.1361 28.2159C37.0315 28.2096 36.1412 27.3091 36.1475 26.2046C36.1538 25.1 37.0543 24.2097 38.1589 24.216C39.2634 24.2223 40.1537 25.1228 40.1474 26.2274Z" fill="#E6A80B"/>
<path d="M52.1472 26.2957C52.141 27.4002 51.2404 28.2906 50.1359 28.2843C49.0313 28.278 48.141 27.3775 48.1473 26.2729C48.1536 25.1684 49.0541 24.278 50.1587 24.2843C51.2632 24.2906 52.1535 25.1911 52.1472 26.2957Z" fill="#E6A80B"/>
<path d="M4.07969 38.0222C4.0734 39.1267 3.17289 40.017 2.06834 40.0107C0.963784 40.0045 0.0734671 39.1039 0.079757 37.9994C0.0860468 36.8948 0.986562 36.0045 2.09111 36.0108C3.19566 36.0171 4.08598 36.9176 4.07969 38.0222Z" fill="#E6A80B"/>
<path d="M16.0795 38.0905C16.0732 39.195 15.1727 40.0854 14.0681 40.0791C12.9636 40.0728 12.0733 39.1723 12.0796 38.0677C12.0859 36.9632 12.9864 36.0728 14.0909 36.0791C15.1955 36.0854 16.0858 36.9859 16.0795 38.0905Z" fill="#E6A80B"/>
<path d="M28.0793 38.1588C28.073 39.2634 27.1725 40.1537 26.0679 40.1474C24.9634 40.1411 24.0731 39.2406 24.0794 38.136C24.0857 37.0315 24.9862 36.1412 26.0907 36.1475C27.1953 36.1538 28.0856 37.0543 28.0793 38.1588Z" fill="#E6A80B"/>
<path d="M40.0791 38.2272C40.0728 39.3317 39.1723 40.222 38.0678 40.2157C36.9632 40.2094 36.0729 39.3089 36.0792 38.2044C36.0855 37.0998 36.986 36.2095 38.0905 36.2158C39.1951 36.2221 40.0854 37.1226 40.0791 38.2272Z" fill="#E6A80B"/>
<path d="M52.0789 38.2955C52.0726 39.4 51.1721 40.2904 50.0676 40.2841C48.963 40.2778 48.0727 39.3773 48.079 38.2727C48.0853 37.1682 48.9858 36.2778 50.0903 36.2841C51.1949 36.2904 52.0852 37.1909 52.0789 38.2955Z" fill="#E6A80B"/>
<path d="M4.01136 50.022C4.00507 51.1265 3.10456 52.0168 2 52.0105C0.895452 52.0043 0.00513483 51.1037 0.0114246 49.9992C0.0177145 48.8946 0.918229 48.0043 2.02278 48.0106C3.12733 48.0169 4.01765 48.9174 4.01136 50.022Z" fill="#E6A80B"/>
<path d="M16.0112 50.0903C16.0049 51.1949 15.1044 52.0852 13.9998 52.0789C12.8953 52.0726 12.0049 51.1721 12.0112 50.0675C12.0175 48.963 12.918 48.0727 14.0226 48.0789C15.1271 48.0852 16.0175 48.9857 16.0112 50.0903Z" fill="#E6A80B"/>
<path d="M28.011 50.1586C28.0047 51.2632 27.1042 52.1535 25.9996 52.1472C24.8951 52.1409 24.0047 51.2404 24.011 50.1359C24.0173 49.0313 24.9178 48.141 26.0224 48.1473C27.1269 48.1536 28.0173 49.0541 28.011 50.1586Z" fill="#E6A80B"/>
<path d="M40.0108 50.227C40.0045 51.3315 39.104 52.2218 37.9994 52.2155C36.8949 52.2093 36.0046 51.3087 36.0108 50.2042C36.0171 49.0996 36.9176 48.2093 38.0222 48.2156C39.1267 48.2219 40.0171 49.1224 40.0108 50.227Z" fill="#E6A80B"/>
<path d="M52.0106 50.2953C52.0043 51.3998 51.1038 52.2902 49.9992 52.2839C48.8947 52.2776 48.0044 51.3771 48.0106 50.2725C48.0169 49.168 48.9175 48.2776 50.022 48.2839C51.1266 48.2902 52.0169 49.1907 52.0106 50.2953Z" fill="#E6A80B"/>
</svg>
