<svg width="53" height="53" viewBox="0 0 53 53" fill="none" xmlns="http://www.w3.org/2000/svg">
<path d="M50.0821 40.004C48.9775 40.0063 48.0803 39.1127 48.078 38.0081C48.0757 36.9036 48.9693 36.0063 50.0739 36.004C51.1784 36.0018 52.0757 36.8954 52.078 37.9999C52.0803 39.1045 51.1867 40.0018 50.0821 40.004Z" fill="#808080" fill-opacity="0.3"/>
<path d="M50.1068 52.004C49.0022 52.0063 48.1049 51.1127 48.1027 50.0081C48.1004 48.9036 48.994 48.0063 50.0985 48.004C51.2031 48.0017 52.1004 48.8953 52.1027 49.9999C52.1049 51.1045 51.2113 52.0017 50.1068 52.004Z" fill="#808080" fill-opacity="0.3"/>
<path d="M38.0328 16.0287C36.9282 16.031 36.031 15.1374 36.0287 14.0329C36.0264 12.9283 36.92 12.031 38.0246 12.0288C39.1291 12.0265 40.0264 12.9201 40.0287 14.0246C40.031 15.1292 39.1374 16.0265 38.0328 16.0287Z" fill="#808080" fill-opacity="0.3"/>
<path d="M38.0575 28.0287C36.9529 28.031 36.0556 27.1374 36.0534 26.0328C36.0511 24.9283 36.9447 24.031 38.0492 24.0287C39.1538 24.0265 40.0511 24.92 40.0533 26.0246C40.0556 27.1292 39.162 28.0264 38.0575 28.0287Z" fill="#808080" fill-opacity="0.3"/>
<path d="M38.0821 40.0287C36.9776 40.031 36.0803 39.1374 36.078 38.0328C36.0758 36.9282 36.9693 36.031 38.0739 36.0287C39.1785 36.0264 40.0757 36.92 40.078 38.0246C40.0803 39.1292 39.1867 40.0264 38.0821 40.0287Z" fill="#808080" fill-opacity="0.3"/>
<path d="M38.1068 52.0287C37.0022 52.0309 36.105 51.1374 36.1027 50.0328C36.1004 48.9282 36.994 48.0309 38.0986 48.0287C39.2031 48.0264 40.1004 48.92 40.1027 50.0246C40.105 51.1291 39.2114 52.0264 38.1068 52.0287Z" fill="#808080" fill-opacity="0.3"/>
<path d="M26.0328 16.0534C24.9283 16.0557 24.031 15.1621 24.0287 14.0575C24.0264 12.953 24.92 12.0557 26.0246 12.0534C27.1292 12.0511 28.0264 12.9447 28.0287 14.0493C28.031 15.1539 27.1374 16.0511 26.0328 16.0534Z" fill="#808080" fill-opacity="0.3"/>
<path d="M26.0575 28.0534C24.9529 28.0557 24.0557 27.1621 24.0534 26.0575C24.0511 24.9529 24.9447 24.0557 26.0493 24.0534C27.1538 24.0511 28.0511 24.9447 28.0534 26.0493C28.0556 27.1538 27.1621 28.0511 26.0575 28.0534Z" fill="#808080" fill-opacity="0.3"/>
<path d="M26.0822 40.0534C24.9776 40.0556 24.0803 39.162 24.078 38.0575C24.0758 36.9529 24.9694 36.0556 26.0739 36.0534C27.1785 36.0511 28.0758 36.9447 28.078 38.0493C28.0803 39.1538 27.1867 40.0511 26.0822 40.0534Z" fill="#808080" fill-opacity="0.3"/>
<path d="M26.1068 52.0533C25.0023 52.0556 24.105 51.162 24.1027 50.0575C24.1004 48.9529 24.994 48.0556 26.0986 48.0533C27.2032 48.0511 28.1004 48.9447 28.1027 50.0492C28.105 51.1538 27.2114 52.0511 26.1068 52.0533Z" fill="#808080" fill-opacity="0.3"/>
<path d="M14.0082 4.0781C12.9036 4.08037 12.0063 3.18678 12.0041 2.08222C12.0018 0.97765 12.8954 0.0803812 14 0.0781107C15.1045 0.0758402 16.0018 0.969428 16.0041 2.074C16.0063 3.17856 15.1127 4.07583 14.0082 4.0781Z" fill="#808080" fill-opacity="0.3"/>
<path d="M14.0328 16.0781C12.9283 16.0803 12.031 15.1868 12.0287 14.0822C12.0265 12.9776 12.9201 12.0804 14.0246 12.0781C15.1292 12.0758 16.0265 12.9694 16.0287 14.074C16.031 15.1785 15.1374 16.0758 14.0328 16.0781Z" fill="#808080" fill-opacity="0.3"/>
<path d="M14.0575 28.0781C12.9529 28.0803 12.0557 27.1867 12.0534 26.0822C12.0511 24.9776 12.9447 24.0803 14.0493 24.0781C15.1539 24.0758 16.0511 24.9694 16.0534 26.0739C16.0557 27.1785 15.1621 28.0758 14.0575 28.0781Z" fill="#808080" fill-opacity="0.3"/>
<path d="M14.0822 40.078C12.9776 40.0803 12.0803 39.1867 12.0781 38.0821C12.0758 36.9776 12.9694 36.0803 14.074 36.078C15.1785 36.0758 16.0758 36.9694 16.0781 38.0739C16.0803 39.1785 15.1867 40.0758 14.0822 40.078Z" fill="#808080" fill-opacity="0.3"/>
<path d="M14.1068 52.078C13.0023 52.0803 12.105 51.1867 12.1027 50.0821C12.1005 48.9776 12.9941 48.0803 14.0986 48.078C15.2032 48.0757 16.1005 48.9693 16.1027 50.0739C16.105 51.1785 15.2114 52.0757 14.1068 52.078Z" fill="#808080" fill-opacity="0.3"/>
<path d="M2.0082 4.10277C0.903637 4.10504 0.006368 3.21145 0.0040975 2.10688C0.00182701 1.00232 0.895415 0.105048 1.99998 0.102777C3.10455 0.100507 4.00182 0.994095 4.00409 2.09866C4.00636 3.20323 3.11277 4.1005 2.0082 4.10277Z" fill="#808080" fill-opacity="0.3"/>
<path d="M2.03287 16.1027C0.928304 16.105 0.0310345 15.2114 0.0287641 14.1069C0.0264936 13.0023 0.920082 12.105 2.02465 12.1028C3.12922 12.1005 4.02649 12.9941 4.02876 14.0986C4.03103 15.2032 3.13744 16.1005 2.03287 16.1027Z" fill="#808080" fill-opacity="0.3"/>
<path d="M2.05754 28.1027C0.95297 28.105 0.0557011 27.2114 0.0534306 26.1068C0.0511601 25.0023 0.944748 24.105 2.04932 24.1027C3.15388 24.1005 4.05115 24.994 4.05342 26.0986C4.05569 27.2032 3.1621 28.1004 2.05754 28.1027Z" fill="#808080" fill-opacity="0.3"/>
<path d="M2.0822 40.1027C0.977637 40.105 0.0803676 39.2114 0.0780972 38.1068C0.0758267 37.0022 0.969415 36.105 2.07398 36.1027C3.17855 36.1004 4.07582 36.994 4.07809 38.0986C4.08036 39.2032 3.18677 40.1004 2.0822 40.1027Z" fill="#808080" fill-opacity="0.3"/>
<path d="M2.10687 52.1027C1.0023 52.1049 0.105034 51.2114 0.102764 50.1068C0.100493 49.0022 0.994081 48.1049 2.09865 48.1027C3.20322 48.1004 4.10048 48.994 4.10276 50.0986C4.10503 51.2031 3.21144 52.1004 2.10687 52.1027Z" fill="#808080" fill-opacity="0.3"/>
</svg>
