<svg width="32" height="32" viewBox="0 0 32 32" fill="none" xmlns="http://www.w3.org/2000/svg">
<g clip-path="url(#clip0_49_103)">
<path d="M27 30.5731C24.84 30.5731 23.48 31.3789 22.28 32.1079C21.24 32.741 20.392 33.259 19 33.259C17.56 33.259 16.76 32.7794 15.72 32.1079C14.52 31.3789 13.208 30.5731 11 30.5731C8.792 30.5731 7.48 31.3789 6.28 32.1079C5.592 32.53 4.984 32.8945 4.248 33.1055C3.528 33.2974 3 33.988 3 34.8513V35.0432C3 36.1942 3.896 37.0192 4.824 36.789C6.008 36.5012 6.904 35.964 7.72 35.4652C8.76 34.8321 9.592 34.3141 11 34.3141C12.408 34.3141 13.24 34.7938 14.28 35.4652C15.48 36.1942 16.792 37 19 37C21.208 37 22.52 36.1942 23.72 35.4652C24.76 34.8321 25.608 34.3141 27 34.3141C28.44 34.3141 29.24 34.7938 30.28 35.4652C31.112 35.964 32.008 36.5204 33.208 36.8082C33.4242 36.8587 33.6469 36.8518 33.8606 36.7878C34.0743 36.7238 34.2736 36.6043 34.4445 36.4378C34.6155 36.2713 34.7538 36.0618 34.8498 35.8241C34.9458 35.5864 34.9971 35.3264 35 35.0623V34.8897C35 34.0072 34.456 33.3165 33.736 33.1247C33 32.9329 32.408 32.5683 31.72 32.1271C30.52 31.3789 29.16 30.5731 27 30.5731ZM27 22.036C24.84 22.036 23.48 22.8609 22.28 23.5707C21.24 24.1847 20.392 24.7218 19 24.7218C17.56 24.7218 16.76 24.2422 15.72 23.5707C14.52 22.8417 13.208 22.036 11 22.036C8.792 22.036 7.48 22.8609 6.28 23.5707C5.592 23.9736 4.984 24.3573 4.232 24.5683C3.528 24.7602 3 25.4508 3 26.3141V26.506C3.00009 26.7712 3.04948 27.033 3.14456 27.2724C3.23965 27.5118 3.37804 27.7228 3.54968 27.89C3.72132 28.0572 3.92188 28.1764 4.13678 28.239C4.35168 28.3016 4.57551 28.306 4.792 28.2518C5.992 27.964 6.888 27.4077 7.72 26.9281C8.76 26.2566 9.56 25.777 11 25.777C12.44 25.777 13.24 26.2566 14.28 26.9281C15.48 27.6571 16.792 28.4628 19 28.4628C21.208 28.4628 22.52 27.6379 23.72 26.9281C24.76 26.2566 25.56 25.777 27 25.777C28.44 25.777 29.24 26.2566 30.28 26.9281C31.112 27.4269 32.008 27.9832 33.208 28.271C33.4255 28.3219 33.6496 28.3145 33.8644 28.2494C34.0793 28.1843 34.2794 28.0631 34.4507 27.8945C34.6219 27.7259 34.7599 27.514 34.8549 27.2739C34.9498 27.0339 34.9994 26.7717 35 26.506V26.3333C35 25.4508 34.456 24.7602 33.736 24.5683C33 24.3765 32.408 24.012 31.72 23.5707C30.52 22.8417 29.16 22.036 27 22.036ZM31.72 6.53477C30.52 5.80576 29.192 5 27 5C24.808 5 23.48 5.80576 22.28 6.53477C21.24 7.14868 20.392 7.68585 19 7.68585C17.56 7.68585 16.76 7.20623 15.72 6.53477C14.52 5.82494 13.208 5 11 5C8.792 5 7.48 5.80576 6.28 6.53477C5.592 6.95683 4.984 7.32134 4.248 7.53237C3.528 7.72422 3 8.41487 3 9.27818V9.41247C3 10.5635 3.864 11.4077 4.792 11.1775C5.992 10.8897 6.888 10.3333 7.72 9.85372C8.76 9.22062 9.592 8.70264 11 8.70264C12.408 8.70264 13.24 9.18225 14.28 9.85372C15.48 10.5827 16.792 11.3885 19 11.3885C21.208 11.3885 22.52 10.5635 23.72 9.85372C24.76 9.23981 25.608 8.70264 27 8.70264C28.44 8.70264 29.24 9.18225 30.28 9.85372C31.112 10.3525 32.008 10.9089 33.208 11.1966C33.4255 11.2475 33.6496 11.2401 33.8644 11.1751C34.0793 11.11 34.2794 10.9888 34.4507 10.8202C34.6219 10.6515 34.7599 10.4396 34.8549 10.1996C34.9498 9.95955 34.9994 9.69733 35 9.43165V9.25899C35 8.3765 34.456 7.68585 33.736 7.494C33 7.30216 32.408 6.95683 31.72 6.53477ZM27 13.4988C24.84 13.4988 23.48 14.3237 22.28 15.0336C21.24 15.705 20.44 16.1847 19 16.1847C17.56 16.1847 16.76 15.705 15.72 15.0336C14.52 14.3046 13.208 13.4988 11 13.4988C8.792 13.4988 7.48 14.3237 6.28 15.0336C5.592 15.4748 5 15.8393 4.264 16.0312C3.544 16.223 3 16.9137 3 17.7962V17.9688C3.00009 18.234 3.04948 18.4958 3.14456 18.7352C3.23965 18.9746 3.37804 19.1856 3.54968 19.3528C3.72132 19.52 3.92188 19.6393 4.13678 19.7018C4.35168 19.7644 4.57551 19.7688 4.792 19.7146C5.992 19.4269 6.888 18.8705 7.72 18.3909C8.76 17.777 9.608 17.2398 11 17.2398C12.392 17.2398 13.24 17.7194 14.28 18.3909C15.48 19.1199 16.792 19.9257 19 19.9257C21.208 19.9257 22.52 19.1007 23.72 18.3909C24.76 17.777 25.608 17.2398 27 17.2398C28.44 17.2398 29.24 17.7194 30.28 18.3909C31.112 18.8897 32.008 19.446 33.208 19.7338C33.4242 19.7844 33.6469 19.7775 33.8606 19.7135C34.0743 19.6495 34.2736 19.53 34.4445 19.3635C34.6155 19.1969 34.7538 18.9874 34.8498 18.7498C34.9458 18.5121 34.9971 18.2521 35 17.988V17.8153C35 16.9329 34.456 16.2422 33.736 16.0504C33 15.8585 32.408 15.494 31.72 15.0528C30.52 14.3046 29.16 13.4988 27 13.4988Z" fill="url(#paint0_linear_49_103)"/>
</g>
<defs>
<linearGradient id="paint0_linear_49_103" x1="19" y1="5" x2="19" y2="37" gradientUnits="userSpaceOnUse">
<stop stop-color="#FFBF00"/>
<stop offset="1" stop-color="#F2A50C"/>
</linearGradient>
<clipPath id="clip0_49_103">
<rect width="32" height="32" fill="white"/>
</clipPath>
</defs>
</svg>
