<svg width="32" height="32" viewBox="0 0 32 32" fill="none" xmlns="http://www.w3.org/2000/svg">
<g clip-path="url(#clip0_49_79)">
<path d="M25.3333 9.72727H24.24L21.9733 2.92C21.7857 2.3587 21.4448 1.87367 20.9965 1.53035C20.5483 1.18703 20.0143 1.00192 19.4667 1H17.3333C16.6 1 16 1.65455 16 2.45455C16 3.25455 16.6 3.90909 17.3333 3.90909H19.4667L21.4133 9.72727H15L14.52 8.27273H14.64C15.3733 8.27273 15.9733 7.61818 15.9733 6.81818C15.9733 6.01818 15.3733 5.36364 14.64 5.36364H10.6667C9.93333 5.36364 9.33333 6.01818 9.33333 6.81818C9.33333 7.61818 9.93333 8.27273 10.6667 8.27273H11.6667L14.0933 15.5455H13.2C12.6133 12.3018 10.12 9.90182 7 9.74182C3.26667 9.53818 0 12.9273 0 17C0 21.0727 2.93333 24.2727 6.66667 24.2727C9.94667 24.2727 12.6 21.8145 13.2 18.4545H18.8C19.3867 21.6982 21.88 24.0982 25 24.2582C28.7333 24.4473 32 21.0727 32 16.9855C32 12.9273 29.0667 9.72727 25.3333 9.72727ZM8 18.4545H10.4267C9.86667 20.2436 8.29333 21.48 6.4 21.3491C4.41333 21.2182 2.76 19.3855 2.66667 17.2036C2.57333 14.6582 4.36 12.6364 6.66667 12.6364C8.44 12.6364 9.89333 13.8436 10.4267 15.5455H8C7.26667 15.5455 6.66667 16.2 6.66667 17C6.66667 17.8 7.26667 18.4545 8 18.4545ZM18.8 15.5455H16.9333L15.96 12.6364H20C19.4133 13.48 18.9867 14.4545 18.8 15.5455ZM25.1733 21.3636C23.12 21.2764 21.3867 19.3709 21.3333 17.1164C21.3067 15.72 21.8533 14.4982 22.7333 13.6836L23.56 16.1564C23.8133 16.9127 24.5733 17.3055 25.2667 17.0291C25.96 16.7527 26.32 15.9236 26.0667 15.1673L25.2267 12.6509L25.24 12.6364C25.7746 12.6165 26.3073 12.715 26.806 12.9259C27.3047 13.1369 27.7591 13.4559 28.1416 13.8637C28.5242 14.2715 28.827 14.7597 29.0319 15.2987C29.2367 15.8378 29.3392 16.4165 29.3333 17C29.3333 19.5018 27.4933 21.4509 25.1733 21.3636ZM14.6667 28.6364H9.33333L17.3333 33V30.0909H22.6667L14.6667 25.7273V28.6364Z" fill="url(#paint0_linear_49_79)"/>
</g>
<defs>
<linearGradient id="paint0_linear_49_79" x1="16" y1="1" x2="16" y2="33" gradientUnits="userSpaceOnUse">
<stop stop-color="#FFBF00"/>
<stop offset="1" stop-color="#F2A50C"/>
</linearGradient>
<clipPath id="clip0_49_79">
<rect width="32" height="32" fill="white"/>
</clipPath>
</defs>
</svg>
