<svg width="13" height="8" viewBox="0 0 13 8" fill="none" xmlns="http://www.w3.org/2000/svg">
<path fill-rule="evenodd" clip-rule="evenodd" d="M7.09038 0.213251C7.24874 -0.0129739 7.56051 -0.0679913 7.78673 0.0903659L12.7867 3.59037C12.9204 3.68393 13 3.83682 13 3.99998C13 4.16314 12.9204 4.31603 12.7867 4.4096L7.78673 7.9096C7.56051 8.06796 7.24874 8.01294 7.09038 7.78671C6.93203 7.56049 6.98704 7.24872 7.21327 7.09037L10.9138 4.49998H0.5C0.223858 4.49998 0 4.27612 0 3.99998C0 3.72384 0.223858 3.49998 0.5 3.49998H10.9138L7.21327 0.909598C6.98704 0.751241 6.93203 0.439475 7.09038 0.213251Z" fill="#332200"/>
</svg>
